<?xml version="1.0" encoding="UTF-8"?>
<svg xmlns="http://www.w3.org/2000/svg" viewBox="0 0 780 1350" width="780" height="1350">
  <title>Music Notes — Layer Separated SVG</title>
  <desc>이미지에서 추출한 음표 레이어 분리 SVG</desc>
  <!-- 상단 좌측 이중 -->
  <g id="layer-1" fill="#D96050" transform="translate(108,228) scale(1)">
    <ellipse cx="0" cy="0" rx="11" ry="7.5" transform="rotate(-25)"/>
    <rect x="9.5" y="-52" width="3" height="52" rx="1.5"/>
    <ellipse cx="44" cy="-19" rx="11" ry="7.5" transform="rotate(-25,44,-19)"/>
    <rect x="53.5" y="-71" width="3" height="52" rx="1.5"/>
    <polygon points="9.5,-52 53.5,-71 56.5,-71 12.5,-52"/>
    <polygon points="9.5,-43 53.5,-62 56.5,-62 12.5,-43"/>
  </g>
  <!-- 상단 중앙 단음 -->
  <g id="layer-2" fill="#D87565" transform="translate(502,208) scale(1)">
    <ellipse cx="0" cy="0" rx="11" ry="7.5" transform="rotate(-25)"/>
    <rect x="9.5" y="-52" width="3" height="52" rx="1.5"/>
    <path d="M12.5,-52 C32,-49 38,-36 30,-23 C24,-14 27,-5 17,-1 C25,-5 27,-15 22,-25 C16,-35 14,-45 12.5,-52Z"/>
  </g>
  <!-- 오선 좌측 이중 -->
  <g id="layer-3" fill="#D66050" transform="translate(252,606) scale(0.95)">
    <ellipse cx="0" cy="0" rx="11" ry="7.5" transform="rotate(-25)"/>
    <rect x="9.5" y="-52" width="3" height="52" rx="1.5"/>
    <ellipse cx="42" cy="-20" rx="11" ry="7.5" transform="rotate(-25,42,-20)"/>
    <rect x="51.5" y="-72" width="3" height="52" rx="1.5"/>
    <polygon points="9.5,-52 51.5,-72 54.5,-72 12.5,-52"/>
    <polygon points="9.5,-43 51.5,-63 54.5,-63 12.5,-43"/>
  </g>
  <!-- 오선 단음 (소) -->
  <g id="layer-4" fill="#C85040" transform="translate(338,630) scale(0.82)">
    <ellipse cx="0" cy="0" rx="11" ry="7.5" transform="rotate(-25)"/>
    <rect x="9.5" y="-52" width="3" height="52" rx="1.5"/>
    <path d="M12.5,-52 C32,-49 38,-36 30,-23 C24,-14 27,-5 17,-1 C25,-5 27,-15 22,-25 C16,-35 14,-45 12.5,-52Z"/>
  </g>
  <!-- 오선 중간 이중 -->
  <g id="layer-5" fill="#D87050" transform="translate(438,578) scale(0.95)">
    <ellipse cx="0" cy="0" rx="11" ry="7.5" transform="rotate(-25)"/>
    <rect x="9.5" y="-52" width="3" height="52" rx="1.5"/>
    <ellipse cx="43" cy="-20" rx="11" ry="7.5" transform="rotate(-25,43,-20)"/>
    <rect x="52.5" y="-72" width="3" height="52" rx="1.5"/>
    <polygon points="9.5,-52 52.5,-72 55.5,-72 12.5,-52"/>
    <polygon points="9.5,-43 52.5,-63 55.5,-63 12.5,-43"/>
  </g>
  <!-- 오선 우측 이중 -->
  <g id="layer-6" fill="#D88055" transform="translate(560,558) scale(0.95)">
    <ellipse cx="0" cy="0" rx="11" ry="7.5" transform="rotate(-25)"/>
    <rect x="9.5" y="-52" width="3" height="52" rx="1.5"/>
    <ellipse cx="42" cy="-22" rx="11" ry="7.5" transform="rotate(-25,42,-22)"/>
    <rect x="51.5" y="-74" width="3" height="52" rx="1.5"/>
    <polygon points="9.5,-52 51.5,-74 54.5,-74 12.5,-52"/>
    <polygon points="9.5,-43 51.5,-65 54.5,-65 12.5,-43"/>
  </g>
  <!-- 오선 최우측 단음 -->
  <g id="layer-7" fill="#D89060" transform="translate(636,462) scale(0.88)">
    <ellipse cx="0" cy="0" rx="11" ry="7.5" transform="rotate(-25)"/>
    <rect x="9.5" y="-52" width="3" height="52" rx="1.5"/>
    <path d="M12.5,-52 C32,-49 38,-36 30,-23 C24,-14 27,-5 17,-1 C25,-5 27,-15 22,-25 C16,-35 14,-45 12.5,-52Z"/>
  </g>
  <!-- 하단 좌측 단음 -->
  <g id="layer-8" fill="#E06055" transform="translate(112,952) scale(1)">
    <ellipse cx="0" cy="0" rx="11" ry="7.5" transform="rotate(-25)"/>
    <rect x="9.5" y="-52" width="3" height="52" rx="1.5"/>
    <path d="M12.5,-52 C32,-49 38,-36 30,-23 C24,-14 27,-5 17,-1 C25,-5 27,-15 22,-25 C16,-35 14,-45 12.5,-52Z"/>
  </g>
  <!-- 우측 황금 단음 -->
  <g id="layer-9" fill="#C89030" transform="translate(655,730) scale(1)">
    <ellipse cx="0" cy="0" rx="11" ry="7.5" transform="rotate(-25)"/>
    <rect x="9.5" y="-52" width="3" height="52" rx="1.5"/>
    <path d="M12.5,-52 C32,-49 38,-36 30,-23 C24,-14 27,-5 17,-1 C25,-5 27,-15 22,-25 C16,-35 14,-45 12.5,-52Z"/>
  </g>
</svg>